<svg width="128" height="128" viewBox="0 0 128 128" fill="none" xmlns="http://www.w3.org/2000/svg">
  <rect width="128" height="128" rx="32" fill="url(#paint0_linear_eb_icon)"/>
  <path d="M40 40H78C88.4934 40 97 48.5066 97 59C97 69.4934 88.4934 78 78 78H56V96H40V40Z" fill="#0C0C12" fill-opacity="0.9"/>
  <path d="M56 54H77C80.3137 54 83 56.6863 83 60C83 63.3137 80.3137 66 77 66H56V54Z" fill="white"/>
  <path d="M38 88C38 79.1634 45.1634 72 54 72H72C80.8366 72 88 79.1634 88 88V90C88 95.5228 83.5228 100 78 100H48C42.4772 100 38 95.5228 38 90V88Z" fill="white" fill-opacity="0.12"/>
  <defs>
    <linearGradient id="paint0_linear_eb_icon" x1="8" y1="8" x2="120" y2="120" gradientUnits="userSpaceOnUse">
      <stop stop-color="#6D5BFF"/>
      <stop offset="1" stop-color="#A855F7"/>
    </linearGradient>
  </defs>
</svg>
