<svg xmlns="http://www.w3.org/2000/svg" viewBox="0 0 120 120">
  <rect width="120" height="120" rx="28" fill="#0F172A"/>
  <circle cx="60" cy="60" r="32" fill="#1E293B"/>
  <circle cx="60" cy="60" r="12" fill="#6366F1"/>
  <path d="M60 24c6 0 12 3 14 8 2 5 1 11-3 15l-11-11V24z" fill="#818CF8"/>
  <path d="M96 60c0-6-3-12-8-14-5-2-11-1-15 3l11 11H96z" fill="#818CF8"/>
  <path d="M60 96c-6 0-12-3-14-8-2-5-1-11 3-15l11 11V96z" fill="#818CF8"/>
  <path d="M24 60c0 6 3 12 8 14 5 2 11 1 15-3L36 60H24z" fill="#818CF8"/>
</svg>
