<svg xmlns="http://www.w3.org/2000/svg" viewBox="0 0 220 64" role="img" aria-labelledby="title">
  <title id="title">ServiceTitan</title>
  <rect width="220" height="64" rx="12" fill="#0f172a"/>
  <path d="M58.8 17.6c4.6 0 8.4 2.4 8.4 7.1 0 9.8-14.2 7-14.2 11.7 0 1.9 2 2.7 4.3 2.7 2.5 0 4.7-.9 6.3-2l3 5.1c-2.4 1.9-5.6 3-9.1 3-5.4 0-9-2.8-9-7 0-10 14.1-7.1 14.1-11.8 0-1.7-1.6-2.4-3.8-2.4-2.7 0-5.2 1.1-6.9 2.5l-3-5.3c2.3-1.9 5.6-3.6 9.9-3.6Zm25.5 0c7.4 0 12.3 5.5 12.3 12.3s-4.9 12.3-12.3 12.3c-7.4 0-12.3-5.5-12.3-12.3S76.9 17.6 84.3 17.6Zm0 18.5c3.1 0 5.2-2.4 5.2-6.2 0-3.8-2.1-6.2-5.2-6.2s-5.2 2.4-5.2 6.2c0 3.8 2.1 6.2 5.2 6.2Zm27.3-18c4.1 0 6.6 2.2 7.9 4.3l-5.4 3.4c-.5-1.2-1.6-2.2-3-2.2-2.1 0-3.5 2.1-3.5 6.2s1.4 6.2 3.5 6.2c1.4 0 2.4-.8 3-2.2l5.4 3.4c-1.3 2.3-3.8 4.3-7.9 4.3-6.5 0-9.9-4.9-9.9-11.7 0-6.9 3.4-11.7 9.9-11.7Zm23.4-.3c6.2 0 10 3.9 10 10.9V41h-6.8v-12c0-3.2-1.7-4.9-4-4.9s-4 1.7-4 4.9V41h-6.8V28.7c0-7 3.8-10.9 10-10.9Zm22 .6V41h-6.8V18.8h6.8Zm11.4 0V41h-6.8V18.8h6.8Zm9.9 0 6.5 11.1 6.5-11.1h7.6L180 35.6V41h-6.8v-5.4l-11.5-16.8h7.7Z" fill="#f97316"/>
  <text x="110" y="50" text-anchor="middle" font-family="Inter, Arial, sans-serif" font-size="14" fill="#94a3b8">Field Operations CRM</text>
</svg>
