<svg xmlns="http://www.w3.org/2000/svg" viewBox="0 0 48 48"><defs><linearGradient id="a" x1="32.625" x2="32.625" y1="1.738" y2="41.186" gradientUnits="userSpaceOnUse"><stop offset="0" stop-color="#ffb900"/><stop offset=".166" stop-color="#ef8400"/><stop offset=".313" stop-color="#e25c01"/><stop offset=".429" stop-color="#db4401"/><stop offset=".5" stop-color="#d83b01"/></linearGradient><linearGradient id="b" x1="25.676" x2="4.558" y1="3.393" y2="33.553" gradientUnits="userSpaceOnUse"><stop offset="0" stop-color="#800600"/><stop offset=".6" stop-color="#c72127"/><stop offset=".728" stop-color="#c13959"/><stop offset=".847" stop-color="#bc4b81"/><stop offset=".942" stop-color="#b95799"/><stop offset="1" stop-color="#b85ba2"/></linearGradient><linearGradient id="c" x1="14.968" x2="40.993" y1="40.063" y2="40.063" gradientUnits="userSpaceOnUse"><stop offset="0" stop-color="#f32b44"/><stop offset=".6" stop-color="#a4070a"/></linearGradient><linearGradient id="d" x1="26.108" x2="21.636" y1="2.776" y2="9.163" gradientUnits="userSpaceOnUse"><stop offset="0" stop-opacity=".4"/><stop offset="1" stop-opacity="0"/></linearGradient><linearGradient id="e" x1="32.675" x2="21.002" y1="40.639" y2="39.618" gradientUnits="userSpaceOnUse"><stop offset="0" stop-opacity=".4"/><stop offset="1" stop-opacity="0"/></linearGradient></defs><title>Union_48x</title><path fill="url(#a)" d="M25.251 4.01 28 11.25V36l-2.684 7.992 11.879-3.3A3.83 3.83 0 0 0 40 37V11a3.83 3.83 0 0 0-2.81-3.692Z"/><path fill="url(#b)" d="m14.519 33.816-3.537 1.934A2.015 2.015 0 0 1 8 33.982V14.84a3.82 3.82 0 0 1 1.921-3.317l12.462-7.151a3.76 3.76 0 0 1 1.867-.5A3.746 3.746 0 0 1 28 7.625v3.625l-10.128 3.692A2.85 2.85 0 0 0 16 17.618v13.7a2.85 2.85 0 0 1-1.481 2.498"/><path fill="url(#c)" d="M28 36v4.457a3.66 3.66 0 0 1-3.668 3.668 3.66 3.66 0 0 1-1.792-.468l-7.811-4.377a1.752 1.752 0 0 1 .857-3.28Z"/><path fill="url(#d)" d="m14.519 33.816-3.537 1.934A2.015 2.015 0 0 1 8 33.982V14.84a3.82 3.82 0 0 1 1.921-3.317l12.462-7.151a3.76 3.76 0 0 1 1.867-.5A3.746 3.746 0 0 1 28 7.625v3.625l-10.128 3.692A2.85 2.85 0 0 0 16 17.618v13.7a2.85 2.85 0 0 1-1.481 2.498"/><path fill="url(#e)" d="M28 36v4.457a3.66 3.66 0 0 1-3.668 3.668 3.66 3.66 0 0 1-1.792-.468l-7.811-4.377a1.752 1.752 0 0 1 .857-3.28Z"/><path fill="none" d="M0 0h48v48H0z"/></svg>