<svg xmlns="http://www.w3.org/2000/svg" viewBox="0 0 48 48"><defs><linearGradient id="a" x1="28.5" x2="28.5" y1="25" y2="44" gradientUnits="userSpaceOnUse"><stop offset="0" stop-color="#35b8f1"/><stop offset="1" stop-color="#28a8ea"/></linearGradient><linearGradient id="b" x1="5.822" x2="20.178" y1="11.568" y2="36.432" gradientUnits="userSpaceOnUse"><stop offset="0" stop-color="#1784d9"/><stop offset=".5" stop-color="#107ad5"/><stop offset="1" stop-color="#0a63c9"/></linearGradient></defs><path fill="#0a2767" d="M45 25a.96.96 0 0 0-.458-.825h-.005l-.018-.01-14.9-8.82a2 2 0 0 0-.2-.119 2 2 0 0 0-1.834 0 2 2 0 0 0-.2.119l-14.9 8.82-.018.01a.97.97 0 0 0 .023 1.663l14.9 8.82a2 2 0 0 0 .2.119 2 2 0 0 0 1.834 0 2 2 0 0 0 .2-.119l14.9-8.82A.96.96 0 0 0 45 25"/><path fill="#0364b8" d="M14.222 19.111H24v8.963h-9.778zM43 10V5.9A1.86 1.86 0 0 0 41.187 4H15.813A1.86 1.86 0 0 0 14 5.9V10l15 4z"/><path fill="#0078d4" d="M14 10h10v9H14z"/><path fill="#28a8ea" d="M34 10H24v9l10 9h9v-9z"/><path fill="#0078d4" d="M24 19h10v9H24z"/><path fill="#0364b8" d="M24 28h10v9H24z"/><path fill="#14447d" d="M14.222 28.074H24v8.148h-9.778z"/><path fill="#0078d4" d="M34 28h9v9h-9z"/><path fill="url(#a)" d="m44.542 25.783-.019.01-14.9 8.38q-.097.06-.2.112a2.1 2.1 0 0 1-.808.2l-.814-.476a2 2 0 0 1-.2-.115l-15.1-8.618h-.007L12 25v16.964A2.05 2.05 0 0 0 14.063 44h28.906c.017 0 .032-.008.05-.008a2.5 2.5 0 0 0 .7-.146A2 2 0 0 0 44 43.7c.067-.038.182-.121.182-.121A2.02 2.02 0 0 0 45 41.964V25a.9.9 0 0 1-.458.783"/><path fill="#0a2767" d="M44.2 24.933v1.04L28.62 36.7 12.49 25.283a.01.01 0 0 0-.01-.01l-1.48-.89v-.75l.61-.01 1.29.74.03.01.11.07s15.16 8.65 15.2 8.67l.58.34c.05-.02.1-.04.16-.06.03-.02 15.05-8.47 15.05-8.47z" opacity=".5"/><path fill="none" d="M0 0h48v48H0z"/><path fill="#1490df" d="m44.542 25.783-.019.011-14.9 8.38q-.097.06-.2.112a2.09 2.09 0 0 1-1.834 0 2 2 0 0 1-.2-.112l-14.9-8.38-.018-.011A.9.9 0 0 1 12 25v16.964A2.05 2.05 0 0 0 14.062 44h28.876A2.05 2.05 0 0 0 45 41.964V25a.9.9 0 0 1-.458.783"/><path d="m29.84 34.05-.223.125a2 2 0 0 1-.2.113 2.1 2.1 0 0 1-.786.208L34.3 41.2l9.889 2.383a2.04 2.04 0 0 0 .627-.783z" opacity=".1"/><path d="m30.85 33.482-1.233.693a2 2 0 0 1-.2.113 2.1 2.1 0 0 1-.786.208l2.656 7.323 12.905 1.761A2.02 2.02 0 0 0 45 41.964v-.219z" opacity=".05"/><path fill="#28a8ea" d="M14.09 44h28.845a2.07 2.07 0 0 0 1.235-.4L27.8 34.011a2 2 0 0 1-.2-.115l-15.1-8.618h-.007L12 25v16.906A2.09 2.09 0 0 0 14.09 44"/><path d="M26 13.833v21.33a1.84 1.84 0 0 1-1.15 1.7 1.7 1.7 0 0 1-.68.14H12V13h2v-1h10.17A1.837 1.837 0 0 1 26 13.833" opacity=".1"/><path d="M25 14.833v21.33a1.6 1.6 0 0 1-.15.7A1.82 1.82 0 0 1 23.17 38H12V13h11.17a1.7 1.7 0 0 1 .83.21 1.82 1.82 0 0 1 1 1.623" opacity=".2"/><path d="M25 14.833v19.33A1.846 1.846 0 0 1 23.17 36H12V13h11.17a1.7 1.7 0 0 1 .83.21 1.82 1.82 0 0 1 1 1.623" opacity=".2"/><path d="M24 14.833v19.33A1.84 1.84 0 0 1 22.17 36H12V13h10.17A1.83 1.83 0 0 1 24 14.833" opacity=".2"/><rect width="22" height="22" x="2" y="13" fill="url(#b)" rx="1.833"/><path fill="#fff" d="M7.729 20.688a5.33 5.33 0 0 1 2.094-2.313 6.33 6.33 0 0 1 3.327-.834 5.9 5.9 0 0 1 3.079.791 5.3 5.3 0 0 1 2.037 2.21 7.1 7.1 0 0 1 .714 3.25 7.5 7.5 0 0 1-.735 3.4 5.4 5.4 0 0 1-2.1 2.287 6.1 6.1 0 0 1-3.194.812 6 6 0 0 1-3.147-.8 5.37 5.37 0 0 1-2.064-2.214 6.96 6.96 0 0 1-.722-3.211 7.7 7.7 0 0 1 .711-3.378m2.232 5.43a3.46 3.46 0 0 0 1.178 1.522 3.08 3.08 0 0 0 1.84.554 3.22 3.22 0 0 0 1.964-.572 3.3 3.3 0 0 0 1.144-1.522 5.9 5.9 0 0 0 .365-2.123 6.5 6.5 0 0 0-.344-2.15A3.4 3.4 0 0 0 15 20.241a3.04 3.04 0 0 0-1.947-.6 3.18 3.18 0 0 0-1.883.559 3.5 3.5 0 0 0-1.2 1.535 6.1 6.1 0 0 0-.008 4.385z"/><path fill="#50d9ff" d="M34 10h9v9h-9z"/></svg>